# xmcd
#
# Track frame offsets:
#	150
#	59469
#	84978
#	119051
#	171277
#	192235
#
# Disc length: 3096 seconds
#
# Revision: 0
# Processed by: cddbd v1.5.2PL0 Copyright (c) Steve Scherf et al.
# Submitted via: audiograbber 1.83.01
#
DISCID=500c1606
DTITLE=Assembly Of Dust - 12-31-05 Paradise Rock Club CD3
DYEAR=2005
DGENRE=Country
TTITLE0=Cabin John
TTITLE1=Crest Of My Wing
TTITLE2=Lone Tree
TTITLE3=Songs We Sing
TTITLE4=Honest Hour
TTITLE5=Harrower
EXTD=
EXTT0=
EXTT1=
EXTT2=
EXTT3=
EXTT4=
EXTT5=
PLAYORDER=
